# Blender 4.2.0
# www.blender.org
mtllib burger.mtl
o Cube
v -0.666667 1.528116 0.666667
v -0.500000 2.146859 0.500000
v -0.666667 1.528116 -0.666667
v -0.500000 2.146859 -0.500000
v 0.666667 1.528116 0.666667
v 0.500000 2.146859 0.500000
v 0.666667 1.528116 -0.666667
v 0.500000 2.146859 -0.500000
v -0.916667 1.528116 0.000000
v -0.638117 1.914512 0.638117
v -0.609568 2.192055 0.000000
v -0.638117 1.914512 -0.638117
v 0.000000 1.528116 -0.916667
v -0.000000 2.192055 -0.609568
v 0.638117 1.914512 -0.638117
v 0.916667 1.528116 0.000000
v 0.609568 2.192055 0.000000
v 0.638117 1.914512 0.638117
v 0.000000 1.528116 0.916667
v -0.000000 2.192055 0.609568
v -0.878087 1.918968 -0.000000
v 0.000000 1.918968 -0.878087
v 0.878087 1.918968 0.000000
v -0.000000 1.918968 0.878087
v 0.000000 1.528116 0.000000
v -0.000000 2.286903 0.000000
vn -0.9320 0.0934 0.3503
vn -0.7201 0.6475 0.2494
vn -0.7201 0.6475 -0.2494
vn -0.9320 0.0934 -0.3503
vn -0.3503 0.0934 -0.9320
vn -0.2494 0.6475 -0.7201
vn 0.2494 0.6475 -0.7201
vn 0.3503 0.0934 -0.9320
vn 0.9320 0.0934 -0.3503
vn 0.7201 0.6475 -0.2494
vn 0.7201 0.6475 0.2494
vn 0.9320 0.0934 0.3503
vn 0.3503 0.0934 0.9320
vn 0.2494 0.6475 0.7201
vn -0.2494 0.6475 0.7201
vn -0.3503 0.0934 0.9320
vn -0.0000 -1.0000 -0.0000
vn 0.1374 0.9809 -0.1374
vn -0.1374 0.9809 -0.1374
vn -0.1374 0.9809 0.1374
vn 0.1374 0.9809 0.1374
vt 0.375000 0.000000
vt 0.500000 0.000000
vt 0.500000 0.125000
vt 0.375000 0.125000
vt 0.625000 0.000000
vt 0.625000 0.125000
vt 0.625000 0.250000
vt 0.500000 0.250000
vt 0.375000 0.250000
vt 0.500000 0.375000
vt 0.375000 0.375000
vt 0.625000 0.375000
vt 0.625000 0.500000
vt 0.500000 0.500000
vt 0.375000 0.500000
vt 0.500000 0.625000
vt 0.375000 0.625000
vt 0.625000 0.625000
vt 0.625000 0.750000
vt 0.500000 0.750000
vt 0.375000 0.750000
vt 0.500000 0.875000
vt 0.375000 0.875000
vt 0.625000 0.875000
vt 0.625000 1.000000
vt 0.500000 1.000000
vt 0.375000 1.000000
vt 0.125000 0.500000
vt 0.250000 0.500000
vt 0.250000 0.625000
vt 0.125000 0.625000
vt 0.375000 0.500000
vt 0.375000 0.750000
vt 0.250000 0.750000
vt 0.125000 0.750000
vt 0.750000 0.500000
vt 0.750000 0.625000
vt 0.875000 0.500000
vt 0.875000 0.625000
vt 0.875000 0.750000
vt 0.750000 0.750000
s 0
usemtl Material.001
f 1/1/1 10/2/1 21/3/1 9/4/1
f 10/2/2 2/5/2 11/6/2 21/3/2
f 21/3/3 11/6/3 4/7/3 12/8/3
f 9/4/4 21/3/4 12/8/4 3/9/4
f 3/9/5 12/8/5 22/10/5 13/11/5
f 12/8/6 4/7/6 14/12/6 22/10/6
f 22/10/7 14/12/7 8/13/7 15/14/7
f 13/11/8 22/10/8 15/14/8 7/15/8
f 7/15/9 15/14/9 23/16/9 16/17/9
f 15/14/10 8/13/10 17/18/10 23/16/10
f 23/16/11 17/18/11 6/19/11 18/20/11
f 16/17/12 23/16/12 18/20/12 5/21/12
f 5/21/13 18/20/13 24/22/13 19/23/13
f 18/20/14 6/19/14 20/24/14 24/22/14
f 24/22/15 20/24/15 2/25/15 10/26/15
f 19/23/16 24/22/16 10/26/16 1/27/16
f 3/28/17 13/29/17 25/30/17 9/31/17
f 13/29/17 7/32/17 16/17/17 25/30/17
f 25/30/17 16/17/17 5/33/17 19/34/17
f 9/31/17 25/30/17 19/34/17 1/35/17
f 8/13/18 14/36/18 26/37/18 17/18/18
f 14/36/19 4/38/19 11/39/19 26/37/19
f 26/37/20 11/39/20 2/40/20 20/41/20
f 17/18/21 26/37/21 20/41/21 6/19/21
o Cube.001
v -0.723111 1.422647 0.943935
v -0.684489 1.394838 -0.757168
v 0.792077 1.429961 0.792077
v 0.676613 1.444012 -0.761776
v -1.071632 1.432838 -0.127622
v 0.000000 1.429961 -1.080663
v 0.936220 1.426311 -0.017106
v -0.037785 1.440321 0.985342
v 0.000000 1.429961 0.000000
v -0.727015 1.500436 0.944487
v -0.694232 1.472374 -0.769498
v 0.795318 1.507745 0.788836
v 0.672733 1.521775 -0.756792
v -1.078463 1.510556 -0.133523
v -0.006821 1.507702 -1.084346
v 0.936066 1.504117 -0.016426
v -0.038423 1.518126 0.984160
v -0.003400 1.507749 -0.002315
vn 0.0214 -0.9994 0.0270
vn 0.0085 -0.9999 -0.0109
vn -0.0071 -0.9999 0.0071
vn 0.0085 -1.0000 -0.0012
vn -0.0212 0.9994 -0.0269
vn -0.0086 0.9999 0.0109
vn 0.0071 0.9999 -0.0071
vn -0.0086 1.0000 0.0012
vn -0.8482 -0.1502 -0.5080
vn -0.9496 -0.0549 0.3087
vn 0.4294 0.0371 -0.9024
vn -0.4121 -0.1369 -0.9008
vn 0.9846 -0.0167 0.1738
vn 0.9429 0.0365 -0.3312
vn -0.0590 0.0023 0.9983
vn 0.2277 0.0239 0.9734
vt 0.125000 0.500000
vt 0.250000 0.500000
vt 0.250000 0.625000
vt 0.125000 0.625000
vt 0.375000 0.500000
vt 0.375000 0.625000
vt 0.375000 0.750000
vt 0.250000 0.750000
vt 0.125000 0.750000
s 0
usemtl Material.002
f 28/42/22 32/43/22 35/44/22 31/45/22
f 32/43/23 30/46/23 33/47/23 35/44/23
f 35/44/24 33/47/24 29/48/24 34/49/24
f 31/45/25 35/44/25 34/49/25 27/50/25
f 37/42/26 40/45/26 44/44/26 41/43/26
f 41/43/27 44/44/27 42/47/27 39/46/27
f 44/44/28 43/49/28 38/48/28 42/47/28
f 40/45/29 36/50/29 43/49/29 44/44/29
f 28/42/30 31/45/30 40/45/30 37/42/30
f 31/45/31 27/50/31 36/50/31 40/45/31
f 30/46/32 32/43/32 41/43/32 39/46/32
f 32/43/33 28/42/33 37/42/33 41/43/33
f 29/48/34 33/47/34 42/47/34 38/48/34
f 33/47/35 30/46/35 39/46/35 42/47/35
f 27/50/36 34/49/36 43/49/36 36/50/36
f 34/49/37 29/48/37 38/48/37 43/49/37
o Plane
v -0.801308 1.420000 0.739168
v 0.739168 1.420000 0.801308
v -0.739168 1.420000 -0.801308
v 0.801308 1.420000 -0.739168
v -0.950608 1.420000 -0.533673
v -1.068997 1.420000 -0.213799
v -1.082744 1.420000 0.127003
v -0.990504 1.420000 0.455373
v -0.533673 1.420000 0.950608
v -0.213799 1.420000 1.068997
v 0.127003 1.420000 1.082744
v 0.455373 1.420000 0.990504
v 0.950608 1.420000 0.533673
v 1.068997 1.420000 0.213799
v 1.082744 1.420000 -0.127003
v 0.990504 1.420000 -0.455373
v 0.533673 1.420000 -0.950608
v 0.213799 1.420000 -1.068997
v -0.127003 1.420000 -1.082744
v -0.455373 1.420000 -0.990504
v -0.565224 1.420000 0.565224
v -0.565224 1.420000 0.188408
v -0.565224 1.420000 -0.188408
v -0.565224 1.420000 -0.565224
v -0.188408 1.420000 0.565224
v -0.188408 1.420000 0.188408
v -0.188408 1.420000 -0.188408
v -0.188408 1.420000 -0.565224
v 0.188408 1.420000 0.565224
v 0.188408 1.420000 0.188408
v 0.188408 1.420000 -0.188408
v 0.188408 1.420000 -0.565224
v 0.565224 1.420000 0.565224
v 0.565224 1.420000 0.188408
v 0.565224 1.420000 -0.188408
v 0.565224 1.420000 -0.565224
v -0.801308 1.288115 0.739168
v 0.739168 1.288115 0.801308
v -0.739168 1.288115 -0.801308
v 0.801308 1.288115 -0.739168
v -0.950608 1.288115 -0.533673
v -1.068997 1.288115 -0.213799
v -1.082744 1.288115 0.127003
v -0.990504 1.288115 0.455373
v -0.533673 1.288115 0.950608
v -0.213799 1.288115 1.068997
v 0.127003 1.288115 1.082744
v 0.455373 1.288115 0.990504
v 0.950608 1.288115 0.533673
v 1.068997 1.288115 0.213799
v 1.082744 1.288115 -0.127003
v 0.990504 1.288115 -0.455373
v 0.533673 1.288115 -0.950608
v 0.213799 1.288115 -1.068997
v -0.127003 1.288115 -1.082744
v -0.455373 1.288115 -0.990504
v -0.565224 1.288115 0.565224
v -0.565224 1.288115 0.188408
v -0.565224 1.288115 -0.188408
v -0.565224 1.288115 -0.565224
v -0.188408 1.288115 0.565224
v -0.188408 1.288115 0.188408
v -0.188408 1.288115 -0.188408
v -0.188408 1.288115 -0.565224
v 0.188408 1.288115 0.565224
v 0.188408 1.288115 0.188408
v 0.188408 1.288115 -0.188408
v 0.188408 1.288115 -0.565224
v 0.565224 1.288115 0.565224
v 0.565224 1.288115 0.188408
v 0.565224 1.288115 -0.188408
v 0.565224 1.288115 -0.565224
vn -0.0000 1.0000 -0.0000
vn -0.0000 -1.0000 -0.0000
vn -0.7350 -0.0000 0.6780
vn -0.9086 -0.0000 0.4177
vn 0.6780 -0.0000 0.7350
vn 0.4177 -0.0000 0.9086
vn 0.7350 -0.0000 -0.6780
vn 0.9086 -0.0000 -0.4177
vn -0.6780 -0.0000 -0.7350
vn -0.4177 -0.0000 -0.9086
vn -0.8720 -0.0000 -0.4895
vn -0.9806 -0.0000 -0.1961
vn -0.9932 -0.0000 0.1165
vn -0.4895 -0.0000 0.8720
vn -0.1961 -0.0000 0.9806
vn 0.1165 -0.0000 0.9932
vn 0.8720 -0.0000 0.4895
vn 0.9806 -0.0000 0.1961
vn 0.9932 -0.0000 -0.1165
vn 0.4895 -0.0000 -0.8720
vn 0.1961 -0.0000 -0.9806
vn -0.1165 -0.0000 -0.9932
vt 0.800000 0.800000
vt 1.000000 0.800000
vt 1.000000 1.000000
vt 0.800000 1.000000
vt 0.000000 0.800000
vt 0.200000 0.800000
vt 0.200000 1.000000
vt 0.000000 1.000000
vt 0.400000 0.800000
vt 0.400000 1.000000
vt 0.600000 0.800000
vt 0.600000 1.000000
vt 0.000000 0.000000
vt 0.200000 0.000000
vt 0.200000 0.200000
vt 0.000000 0.200000
vt 0.200000 0.400000
vt 0.000000 0.400000
vt 0.200000 0.600000
vt 0.000000 0.600000
vt 0.400000 0.000000
vt 0.400000 0.200000
vt 0.400000 0.400000
vt 0.400000 0.600000
vt 0.600000 0.000000
vt 0.600000 0.200000
vt 0.600000 0.400000
vt 0.600000 0.600000
vt 0.800000 0.000000
vt 0.800000 0.200000
vt 0.800000 0.400000
vt 0.800000 0.600000
vt 1.000000 0.000000
vt 1.000000 0.200000
vt 1.000000 0.400000
vt 1.000000 0.600000
s 1
usemtl Material.003
f 80/51/38 60/52/38 48/53/38 61/54/38
f 49/55/38 68/56/38 64/57/38 47/58/38
f 68/56/38 72/59/38 63/60/38 64/57/38
f 72/59/38 76/61/38 62/62/38 63/60/38
f 76/61/38 80/51/38 61/54/38 62/62/38
f 45/63/38 53/64/38 65/65/38 52/66/38
f 52/66/38 65/65/38 66/67/38 51/68/38
f 51/68/38 66/67/38 67/69/38 50/70/38
f 50/70/38 67/69/38 68/56/38 49/55/38
f 53/64/38 54/71/38 69/72/38 65/65/38
f 65/65/38 69/72/38 70/73/38 66/67/38
f 66/67/38 70/73/38 71/74/38 67/69/38
f 67/69/38 71/74/38 72/59/38 68/56/38
f 54/71/38 55/75/38 73/76/38 69/72/38
f 69/72/38 73/76/38 74/77/38 70/73/38
f 70/73/38 74/77/38 75/78/38 71/74/38
f 71/74/38 75/78/38 76/61/38 72/59/38
f 55/75/38 56/79/38 77/80/38 73/76/38
f 73/76/38 77/80/38 78/81/38 74/77/38
f 74/77/38 78/81/38 79/82/38 75/78/38
f 75/78/38 79/82/38 80/51/38 76/61/38
f 56/79/38 46/83/38 57/84/38 77/80/38
f 77/80/38 57/84/38 58/85/38 78/81/38
f 78/81/38 58/85/38 59/86/38 79/82/38
f 79/82/38 59/86/38 60/52/38 80/51/38
f 116/51/39 97/54/39 84/53/39 96/52/39
f 85/55/39 83/58/39 100/57/39 104/56/39
f 104/56/39 100/57/39 99/60/39 108/59/39
f 108/59/39 99/60/39 98/62/39 112/61/39
f 112/61/39 98/62/39 97/54/39 116/51/39
f 81/63/39 88/66/39 101/65/39 89/64/39
f 88/66/39 87/68/39 102/67/39 101/65/39
f 87/68/39 86/70/39 103/69/39 102/67/39
f 86/70/39 85/55/39 104/56/39 103/69/39
f 89/64/39 101/65/39 105/72/39 90/71/39
f 101/65/39 102/67/39 106/73/39 105/72/39
f 102/67/39 103/69/39 107/74/39 106/73/39
f 103/69/39 104/56/39 108/59/39 107/74/39
f 90/71/39 105/72/39 109/76/39 91/75/39
f 105/72/39 106/73/39 110/77/39 109/76/39
f 106/73/39 107/74/39 111/78/39 110/77/39
f 107/74/39 108/59/39 112/61/39 111/78/39
f 91/75/39 109/76/39 113/80/39 92/79/39
f 109/76/39 110/77/39 114/81/39 113/80/39
f 110/77/39 111/78/39 115/82/39 114/81/39
f 111/78/39 112/61/39 116/51/39 115/82/39
f 92/79/39 113/80/39 93/84/39 82/83/39
f 113/80/39 114/81/39 94/85/39 93/84/39
f 114/81/39 115/82/39 95/86/39 94/85/39
f 115/82/39 116/51/39 96/52/39 95/86/39
f 45/63/40 52/66/41 88/66/41 81/63/40
f 46/83/42 56/79/43 92/79/43 82/83/42
f 48/53/44 60/52/45 96/52/45 84/53/44
f 47/58/46 64/57/47 100/57/47 83/58/46
f 49/55/48 47/58/46 83/58/46 85/55/48
f 50/70/49 49/55/48 85/55/48 86/70/49
f 51/68/50 50/70/49 86/70/49 87/68/50
f 52/66/41 51/68/50 87/68/50 88/66/41
f 53/64/51 45/63/40 81/63/40 89/64/51
f 54/71/52 53/64/51 89/64/51 90/71/52
f 55/75/53 54/71/52 90/71/52 91/75/53
f 56/79/43 55/75/53 91/75/53 92/79/43
f 57/84/54 46/83/42 82/83/42 93/84/54
f 58/85/55 57/84/54 93/84/54 94/85/55
f 59/86/56 58/85/55 94/85/55 95/86/56
f 60/52/45 59/86/56 95/86/56 96/52/45
f 61/54/57 48/53/44 84/53/44 97/54/57
f 62/62/58 61/54/57 97/54/57 98/62/58
f 63/60/59 62/62/58 98/62/58 99/60/59
f 64/57/47 63/60/59 99/60/59 100/57/47
o Cube.002
v -0.500000 0.880707 0.500000
v -0.666667 1.254963 0.666667
v -0.500000 0.880707 -0.500000
v -0.666667 1.254963 -0.666667
v 0.500000 0.880707 0.500000
v 0.666667 1.254963 0.666667
v 0.500000 0.880707 -0.500000
v 0.666667 1.254963 -0.666667
v -0.609568 0.853370 -0.000000
v -0.638117 1.021246 0.638117
v -0.916667 1.254963 0.000000
v -0.638117 1.021246 -0.638117
v 0.000000 0.853370 -0.609568
v 0.000000 1.254963 -0.916667
v 0.638117 1.021246 -0.638117
v 0.609568 0.853370 0.000000
v 0.916667 1.254963 0.000000
v 0.638117 1.021246 0.638117
v -0.000000 0.853370 0.609568
v 0.000000 1.254963 0.916667
v -0.878087 1.018550 0.000000
v 0.000000 1.018550 -0.878087
v 0.878087 1.018550 0.000000
v -0.000000 1.018550 0.878087
v 0.000000 0.795999 0.000000
v 0.000000 1.254963 0.000000
vn -0.5480 -0.8147 0.1898
vn -0.9250 -0.1532 0.3477
vn -0.9250 -0.1532 -0.3477
vn -0.5480 -0.8147 -0.1898
vn -0.1898 -0.8147 -0.5480
vn -0.3477 -0.1532 -0.9250
vn 0.3477 -0.1532 -0.9250
vn 0.1898 -0.8147 -0.5480
vn 0.5480 -0.8147 -0.1898
vn 0.9250 -0.1532 -0.3477
vn 0.9250 -0.1532 0.3477
vn 0.5480 -0.8147 0.1898
vn 0.1898 -0.8147 0.5480
vn 0.3477 -0.1532 0.9250
vn -0.3477 -0.1532 0.9250
vn -0.1898 -0.8147 0.5480
vn -0.0841 -0.9929 -0.0841
vn 0.0841 -0.9929 -0.0841
vn 0.0841 -0.9929 0.0841
vn -0.0841 -0.9929 0.0841
vn -0.0000 1.0000 -0.0000
vt 0.375000 0.000000
vt 0.500000 0.000000
vt 0.500000 0.125000
vt 0.375000 0.125000
vt 0.625000 0.000000
vt 0.625000 0.125000
vt 0.625000 0.250000
vt 0.500000 0.250000
vt 0.375000 0.250000
vt 0.500000 0.375000
vt 0.375000 0.375000
vt 0.625000 0.375000
vt 0.625000 0.500000
vt 0.500000 0.500000
vt 0.375000 0.500000
vt 0.500000 0.625000
vt 0.375000 0.625000
vt 0.625000 0.625000
vt 0.625000 0.750000
vt 0.500000 0.750000
vt 0.375000 0.750000
vt 0.500000 0.875000
vt 0.375000 0.875000
vt 0.625000 0.875000
vt 0.625000 1.000000
vt 0.500000 1.000000
vt 0.375000 1.000000
vt 0.125000 0.500000
vt 0.250000 0.500000
vt 0.250000 0.625000
vt 0.125000 0.625000
vt 0.250000 0.750000
vt 0.125000 0.750000
vt 0.625000 0.500000
vt 0.750000 0.500000
vt 0.750000 0.625000
vt 0.875000 0.500000
vt 0.875000 0.625000
vt 0.875000 0.750000
vt 0.750000 0.750000
vt 0.625000 0.750000
s 0
usemtl Material.001
f 117/87/60 126/88/60 137/89/60 125/90/60
f 126/88/61 118/91/61 127/92/61 137/89/61
f 137/89/62 127/92/62 120/93/62 128/94/62
f 125/90/63 137/89/63 128/94/63 119/95/63
f 119/95/64 128/94/64 138/96/64 129/97/64
f 128/94/65 120/93/65 130/98/65 138/96/65
f 138/96/66 130/98/66 124/99/66 131/100/66
f 129/97/67 138/96/67 131/100/67 123/101/67
f 123/101/68 131/100/68 139/102/68 132/103/68
f 131/100/69 124/99/69 133/104/69 139/102/69
f 139/102/70 133/104/70 122/105/70 134/106/70
f 132/103/71 139/102/71 134/106/71 121/107/71
f 121/107/72 134/106/72 140/108/72 135/109/72
f 134/106/73 122/105/73 136/110/73 140/108/73
f 140/108/74 136/110/74 118/111/74 126/112/74
f 135/109/75 140/108/75 126/112/75 117/113/75
f 119/114/76 129/115/76 141/116/76 125/117/76
f 129/115/77 123/101/77 132/103/77 141/116/77
f 141/116/78 132/103/78 121/107/78 135/118/78
f 125/117/79 141/116/79 135/118/79 117/119/79
f 124/120/80 130/121/80 142/122/80 133/104/80
f 130/121/80 120/123/80 127/124/80 142/122/80
f 142/122/80 127/124/80 118/125/80 136/126/80
f 133/104/80 142/122/80 136/126/80 122/127/80
